<?xml version="1.0" encoding="utf-8"?>
<!-- Generator: Adobe Illustrator 16.0.0, SVG Export Plug-In . SVG Version: 6.00 Build 0)  -->
<!DOCTYPE svg PUBLIC "-//W3C//DTD SVG 1.1//EN" "http://www.w3.org/Graphics/SVG/1.1/DTD/svg11.dtd">
<svg version="1.1" id="Layer_1" xmlns="http://www.w3.org/2000/svg" xmlns:xlink="http://www.w3.org/1999/xlink" x="0px" y="0px"
	 width="400px" height="80px" viewBox="0 0 400 80" style="enable-background:new 0 0 400 80;" xml:space="preserve">
<path style="fill:#121112;" d="M20.139,59.305c0.005-1.342,1.14-2.4,2.478-2.307c2.639,0.186,6.941,0.441,10.628,0.441
	c5.988,0,7.558-1.316,7.558-3.73c0-1.837-0.884-2.898-3.043-3.768l-8.148-3.19c-5.593-2.224-11.385-7.248-11.385-17.298
	c0-14.107,7.852-21.357,24.343-21.357c5.401,0,10.053,0.893,12.48,1.465c1.052,0.248,1.792,1.186,1.788,2.267l-0.044,10.681
	c-0.006,1.405-1.251,2.481-2.643,2.286c-2.6-0.365-6.55-0.851-9.127-0.851c-6.183,0-7.166,2.128-7.166,4.349
	c0,1.353,0.883,2.32,2.651,3.093l8.342,3.478c7.755,3.19,11.583,8.602,11.583,17.396c0,13.625-6.479,21.938-23.264,21.938
	c-7.015,0-12.517-0.916-15.227-1.477c-1.078-0.223-1.845-1.176-1.841-2.277L20.139,59.305z"/>
<path style="fill:#121112;" d="M111.339,9.452c1.28,0,2.318,1.038,2.318,2.318v38.914c0,16.637-8.254,23.521-21.852,23.521h-1.943
	c-13.597,0-21.852-6.885-21.852-23.521V11.77c0-1.28,1.038-2.318,2.318-2.318h14.788c1.281,0,2.319,1.038,2.319,2.318v42.164
	c0,3.154,1.36,4.59,3.399,4.59c2.136,0,3.399-1.436,3.399-4.59V11.77c0-1.28,1.037-2.318,2.318-2.318H111.339z"/>
<path style="fill:#121112;" d="M124.364,9.534h31.468c1.28,0,2.318,1.038,2.318,2.318v11.045c0,1.281-1.038,2.318-2.318,2.318
	H143.79c-1.281,0-2.319,1.038-2.319,2.319v4.925c0,1.28,1.038,2.318,2.319,2.318h9.668c1.28,0,2.318,1.038,2.318,2.318v9.708
	c0,1.279-1.038,2.318-2.318,2.318h-9.668c-1.281,0-2.319,1.037-2.319,2.317v18.886c0,1.279-1.038,2.318-2.318,2.318h-14.788
	c-1.28,0-2.318-1.039-2.318-2.318V11.852C122.046,10.571,123.084,9.534,124.364,9.534"/>
<path style="fill:#121112;" d="M168.306,9.502h34.687c1.618,0,2.738,1.616,2.171,3.131l-4.137,11.045
	c-0.339,0.906-1.204,1.505-2.171,1.505h-11.125c-1.281,0-2.319,1.038-2.319,2.319v4.925c0,1.28,1.038,2.318,2.319,2.318h9.668
	c1.28,0,2.317,1.038,2.317,2.318v9.708c0,1.279-1.037,2.318-2.317,2.318h-9.668c-1.281,0-2.319,1.037-2.319,2.317v18.886
	c0,1.281-1.038,2.318-2.318,2.318h-14.788c-1.28,0-2.318-1.037-2.318-2.318V11.82C165.988,10.541,167.026,9.502,168.306,9.502"/>
<path style="fill:#121112;" d="M232.209,7.93c16.728,0,22.533,10.367,22.533,31.002v4.164c0,20.637-5.806,31.1-22.533,31.1h-1.574
	c-16.728,0-22.531-10.463-22.531-31.1v-4.164c0-20.635,5.804-31.002,22.531-31.002H232.209z M234.866,30.115
	c0-4.747-1.28-6.297-3.443-6.297c-2.165,0-3.445,1.55-3.445,6.297V51.72c0,4.747,1.28,6.587,3.445,6.587
	c2.163,0,3.443-1.84,3.443-6.587V30.115z"/>
<path style="fill:#121112;" d="M341.489,9.523h-27.312c-0.99,0-1.872,0.63-2.193,1.567l-3.786,11.045
	c-0.515,1.505,0.604,3.07,2.193,3.07h1.456c1.477,0,2.578,1.364,2.266,2.808l-9.238,42.758c-0.312,1.447,0.794,2.814,2.273,2.809
	l15.052-0.045c1.153-0.004,2.129-0.855,2.289-1.996l0.721-5.133c0.159-1.146,1.14-1.996,2.296-1.996h6.38
	c1.146,0,2.122,0.838,2.293,1.973l0.776,5.178c0.172,1.135,1.144,1.973,2.289,1.975l15.068,0.025
	c1.479,0.004,2.582-1.361,2.27-2.807l-12.826-59.401C343.524,10.285,342.58,9.523,341.489,9.523 M327.814,48.848l2.166-20.004
	c0.042-0.383,0.365-0.674,0.751-0.674h0.004c0.386,0,0.71,0.291,0.751,0.674l2.168,20.004c0.048,0.447-0.302,0.837-0.751,0.837
	h-4.338C328.116,49.685,327.767,49.295,327.814,48.848"/>
<path style="fill:#121112;" d="M287.742,74.279c-14.545-0.258-25.993-7.396-25.564-30.871l0.062-3.41
	c0.433-23.672,10.272-32.328,25.919-32.323c4.172,0.001,9.64,0.775,12.864,1.299c1.423,0.231,2.288,1.694,1.813,3.054
	c-1.878,5.371-3.073,8.866-3.742,10.84c-0.382,1.127-1.557,1.782-2.714,1.51c-1.361-0.319-3.12-0.67-4.349-0.693
	c-6.035-0.106-9.571,3.828-9.811,16.88l-0.036,2.044c-0.219,11.982,3.968,14.854,9.707,14.955c0.985,0.016,2.79-0.275,4.418-0.584
	c1.616-0.309,3.027,1.119,2.703,2.732l-2.445,12.178c-0.165,0.822-0.756,1.502-1.557,1.748C293.84,74,291.682,74.35,287.742,74.279"
	/>
<path style="fill:#121112;" d="M381.968,67.748c0,3.633-2.944,6.578-6.577,6.578c-3.634,0-6.578-2.945-6.578-6.578
	c0-3.635,2.944-6.578,6.578-6.578C379.023,61.17,381.968,64.113,381.968,67.748"/>
</svg>
