<svg style="position: absolute; width: 0; height: 0;" width="0" height="0" version="1.1" xmlns="http://www.w3.org/2000/svg" xmlns:xlink="http://www.w3.org/1999/xlink">
<defs>
<symbol id="icon-menu" viewBox="0 0 683 1024">
	<title>menu</title>
	<path class="path1" d="M0 170.667h682.667v170.667h-682.667v-170.667z"></path>
	<path class="path2" d="M0 512h682.667v170.667h-682.667v-170.667z"></path>
	<path class="path3" d="M0 853.333h682.667v170.667h-682.667v-170.667z"></path>
</symbol>
<symbol id="icon-wordmark" viewBox="0 0 5120 1024">
	<title>wordmark</title>
	<path class="path1" d="M257.779 759.104c0.064-17.178 14.592-30.72 31.718-29.53 33.779 2.381 88.845 5.645 136.038 5.645 76.646 0 96.742-16.845 96.742-47.744 0-23.514-11.315-37.094-38.95-48.23l-104.294-40.832c-71.59-28.467-145.728-92.774-145.728-221.414 0-180.57 100.506-273.37 311.59-273.37 69.133 0 128.678 11.43 159.744 18.752 13.466 3.174 22.938 15.181 22.886 29.018l-0.563 136.717c-0.077 17.984-16.013 31.757-33.83 29.261-33.28-4.672-83.84-10.893-116.826-10.893-79.142 0-91.725 27.238-91.725 55.667 0 17.318 11.302 29.696 33.933 39.59l106.778 44.518c99.264 40.832 148.262 110.106 148.262 222.669 0 174.4-82.931 280.806-297.779 280.806-89.792 0-160.218-11.725-194.906-18.906-13.798-2.854-23.616-15.053-23.565-29.146l0.474-142.579z"></path>
	<path class="path2" d="M1425.139 120.986c16.384 0 29.67 13.286 29.67 29.67v498.099c0 212.954-105.651 301.069-279.706 301.069h-24.87c-174.042 0-279.706-88.128-279.706-301.069v-498.099c0-16.384 13.286-29.67 29.67-29.67h189.286c16.397 0 29.683 13.286 29.683 29.67v539.699c0 40.371 17.408 58.752 43.507 58.752 27.341 0 43.507-18.381 43.507-58.752v-539.699c0-16.384 13.274-29.67 29.67-29.67h189.286z"></path>
	<path class="path3" d="M1591.859 122.035h402.79c16.384 0 29.67 13.286 29.67 29.67v141.376c0 16.397-13.286 29.67-29.67 29.67h-154.138c-16.397 0-29.683 13.286-29.683 29.683v63.040c0 16.384 13.286 29.67 29.683 29.67h123.75c16.384 0 29.67 13.286 29.67 29.67v124.262c0 16.371-13.286 29.67-29.67 29.67h-123.75c-16.397 0-29.683 13.274-29.683 29.658v241.741c0 16.371-13.286 29.67-29.67 29.67h-189.286c-16.384 0-29.67-13.299-29.67-29.67v-748.442c-0.013-16.397 13.274-29.67 29.658-29.67z"></path>
	<path class="path4" d="M2154.317 121.626h443.994c20.71 0 35.046 20.685 27.789 40.077l-52.954 141.376c-4.339 11.597-15.411 19.264-27.789 19.264h-142.4c-16.397 0-29.683 13.286-29.683 29.683v63.040c0 16.384 13.286 29.67 29.683 29.67h123.75c16.384 0 29.658 13.286 29.658 29.67v124.262c0 16.371-13.274 29.67-29.658 29.67h-123.75c-16.397 0-29.683 13.274-29.683 29.658v241.741c0 16.397-13.286 29.67-29.67 29.67h-189.286c-16.384 0-29.67-13.274-29.67-29.67v-748.442c0-16.371 13.286-29.67 29.67-29.67z"></path>
	<path class="path5" d="M2972.275 101.504c214.118 0 288.422 132.698 288.422 396.826v53.299c0 264.154-74.317 398.080-288.422 398.080h-20.147c-214.118 0-288.397-133.926-288.397-398.080v-53.299c0-264.128 74.291-396.826 288.397-396.826h20.147zM3006.285 385.472c0-60.762-16.384-80.602-44.070-80.602-27.712 0-44.096 19.84-44.096 80.602v276.544c0 60.762 16.384 84.314 44.096 84.314 27.686 0 44.070-23.552 44.070-84.314v-276.544z"></path>
	<path class="path6" d="M4371.059 121.894h-349.594c-12.672 0-23.962 8.064-28.070 20.058l-48.461 141.376c-6.592 19.264 7.731 39.296 28.070 39.296h18.637c18.906 0 32.998 17.459 29.005 35.942l-118.246 547.302c-3.994 18.522 10.163 36.019 29.094 35.955l192.666-0.576c14.758-0.051 27.251-10.944 29.299-25.549l9.229-65.702c2.035-14.669 14.592-25.549 29.389-25.549h81.664c14.669 0 27.162 10.726 29.35 25.254l9.933 66.278c2.202 14.528 14.643 25.254 29.299 25.28l192.87 0.32c18.931 0.051 33.050-17.421 29.056-35.93l-164.173-760.333c-2.97-13.67-15.053-23.424-29.018-23.424zM4196.019 625.254l27.725-256.051c0.538-4.902 4.672-8.627 9.613-8.627h0.051c4.941 0 9.088 3.725 9.613 8.627l27.75 256.051c0.614 5.722-3.866 10.714-9.613 10.714h-55.526c-5.747 0-10.214-4.992-9.613-10.714z"></path>
	<path class="path7" d="M3683.098 950.771c-186.176-3.302-332.71-94.669-327.219-395.149l0.794-43.648c5.542-303.002 131.482-413.798 331.763-413.734 53.402 0.013 123.392 9.92 164.659 16.627 18.214 2.957 29.286 21.683 23.206 39.091-24.038 68.749-39.334 113.485-47.898 138.752-4.89 14.426-19.93 22.81-34.739 19.328-17.421-4.083-39.936-8.576-55.667-8.87-77.248-1.357-122.509 48.998-125.581 216.064l-0.461 26.163c-2.803 153.37 50.79 190.131 124.25 191.424 12.608 0.205 35.712-3.52 56.55-7.475 20.685-3.955 38.746 14.323 34.598 34.97l-31.296 155.878c-2.112 10.522-9.677 19.226-19.93 22.374-14.976 4.634-42.598 9.114-93.030 8.205z"></path>
	<path class="path8" d="M4889.19 867.174c0 46.502-37.683 84.198-84.186 84.198-46.515 0-84.198-37.696-84.198-84.198 0-46.528 37.683-84.198 84.198-84.198 46.49 0 84.186 37.67 84.186 84.198z"></path>
</symbol>
<symbol id="icon-twitter" viewBox="0 0 1130.6666666666663 1024">
	<title>twitter</title>
	<path class="path1" d="M907.912 319.795c0.41 8.294 0.563 16.691 0.563 24.986 0 255.488-194.406 549.99-549.888 549.99-109.21 0-210.739-32-296.294-86.886 15.155 1.792 30.515 2.714 46.080 2.714 90.624 0 173.926-30.925 240.026-82.688-84.531-1.587-155.955-57.395-180.531-134.195 11.776 2.202 23.91 3.379 36.352 3.379 17.664 0 34.765-2.304 50.944-6.707-88.422-17.818-155.034-95.898-155.034-189.594 0-0.819 0-1.587 0-2.406 26.061 14.49 55.91 23.194 87.552 24.218-51.866-34.714-86.016-93.798-86.016-160.922 0-35.379 9.523-68.608 26.214-97.178 95.283 116.992 237.773 193.894 398.387 201.984-3.277-14.182-4.966-28.877-4.966-44.083 0-106.701 86.477-193.178 193.229-193.178 55.603 0 105.83 23.398 141.107 60.979 43.981-8.704 85.35-24.781 122.726-46.899-14.438 45.107-45.107 82.995-84.992 106.906 39.117-4.71 76.288-15.002 111.002-30.413-25.907 38.81-58.675 72.806-96.461 99.994z"></path>
</symbol>
<symbol id="icon-youtube" viewBox="0 0 895.9999999999998 1024">
	<title>youtube</title>
	<path class="path1" d="M550.405 702.571v115.547q0 36.691-21.357 36.691-12.595 0-24.643-12.047v-164.833q12.047-12.047 24.643-12.047 21.357 0 21.357 36.691zM735.5 703.119v25.191h-49.286v-25.191q0-37.238 24.643-37.238t24.643 37.238zM206.5 583.738h58.595v-51.476h-170.857v51.476h57.5v311.595h54.762v-311.595zM364.214 895.333h48.738v-270.524h-48.738v207q-16.429 23-31.214 23-9.857 0-11.5-11.5-0.547-1.643-0.547-19.167v-199.333h-48.738v214.119q0 26.833 4.381 39.976 6.571 20.262 31.762 20.262 26.286 0 55.857-33.405v29.571zM599.143 814.286v-107.881q0-39.976-4.929-54.214-9.309-30.667-38.881-30.667-27.381 0-50.929 29.571v-118.833h-48.738v363.071h48.738v-26.286q24.643 30.119 50.929 30.119 29.571 0 38.881-30.119 4.929-14.786 4.929-54.762zM784.238 808.809v-7.119h-49.833q0 27.929-1.095 33.405-3.833 19.714-21.905 19.714-25.191 0-25.191-37.786v-47.643h98.024v-56.405q0-43.262-14.786-63.524-21.357-27.929-58.047-27.929-37.238 0-58.595 27.929-15.333 20.262-15.333 63.524v94.738q0 43.262 15.881 63.524 21.357 27.929 59.143 27.929 39.429 0 59.143-29.024 9.857-14.786 11.5-29.571 1.095-4.929 1.095-31.762zM451.286 308.833v-115q0-37.786-23.547-37.786t-23.547 37.786v115q0 38.333 23.547 38.333t23.547-38.333zM845.024 720.095q0 128.143-14.238 191.667-7.667 32.309-31.762 54.214t-55.857 25.191q-100.762 11.5-303.929 11.5t-303.929-11.5q-31.762-3.286-56.131-25.191t-31.488-54.214q-14.238-61.333-14.238-191.667 0-128.143 14.238-191.667 7.667-32.309 31.762-54.214t56.405-25.738q100.214-10.953 303.381-10.953t303.929 10.953q31.762 3.833 56.131 25.738t31.488 54.214q14.238 61.333 14.238 191.667zM298.5 21.333h55.857l-66.262 218.5v148.405h-54.762v-148.405q-7.667-40.524-33.405-116.095-20.262-56.405-35.595-102.405h58.047l38.881 144.024zM501.119 203.691v95.833q0 44.357-15.333 64.619-20.262 27.929-58.047 27.929-36.691 0-57.5-27.929-15.333-20.809-15.333-64.619v-95.833q0-43.809 15.333-64.071 20.809-27.929 57.5-27.929 37.786 0 58.047 27.929 15.333 20.262 15.333 64.071zM684.571 114.976v273.262h-49.833v-30.119q-29.024 33.953-56.405 33.953-25.191 0-32.309-20.262-4.381-13.143-4.381-41.071v-215.762h49.833v200.976q0 18.071 0.547 19.167 1.643 12.047 11.5 12.047 14.786 0 31.214-23.547v-208.643h49.833z"></path>
</symbol>
<symbol id="icon-instagram" viewBox="0 0 1002.6666666666665 1024">
	<title>instagram</title>
	<path class="path1" d="M855.718 828.025v-386.385h-80.497q11.926 37.565 11.926 78.112 0 75.13-38.161 138.633t-103.752 100.472-143.106 36.969q-117.465 0-200.944-80.795t-83.478-195.28q0-40.546 11.926-78.112h-84.074v386.385q0 15.503 10.435 25.938t25.938 10.435h637.416q14.907 0 25.639-10.435t10.733-25.938zM686.376 510.211q0-73.938-53.962-126.112t-130.286-52.174q-75.726 0-129.69 52.174t-53.962 126.112 53.962 126.112 129.69 52.174q76.323 0 130.286-52.174t53.962-126.112zM855.718 295.552v-98.385q0-16.696-11.926-28.919t-29.217-12.223h-103.752q-17.291 0-29.217 12.223t-11.926 28.919v98.385q0 17.291 11.926 29.217t29.217 11.926h103.752q17.291 0 29.217-11.926t11.926-29.217zM959.469 171.528v680.944q0 48.298-34.584 82.882t-82.882 34.584h-680.944q-48.298 0-82.882-34.584t-34.584-82.882v-680.944q0-48.298 34.584-82.882t82.882-34.584h680.944q48.298 0 82.882 34.584t34.584 82.882z"></path>
</symbol>
<symbol id="icon-signature" viewBox="0 0 1301.3333333333323 1024">
	<title>signature</title>
	<path class="path1" d="M203.307 498.558c-12.137 1.004-24.309 1.699-36.382 3.237-2.725 0.35-5.897 3.077-7.471 5.592-19.924 31.792-43.919 59.792-75.873 80.006-8.632 5.458-18.443 9.375-28.153 12.693-9.401 3.213-23.213-3.799-30.172-14.253-5.947-8.913-0.618-15.57 4.341-22.963 9.647-14.379 16.951-30.499 27.67-43.946 17.714-22.193 40.617-37.854 68.836-44.322 19.715-4.519 25.531-22.145 34.607-36.416 7.378-11.611 13.453-24.078 19.774-36.334 6.835-13.254 13.191-26.745 19.943-40.041 6.24-12.291 13.006-24.329 19.028-36.727 7.003-14.435 13.224-29.249 20.185-43.702 4.963-10.304 11.069-20.080 15.856-30.471 18.295-39.704 36.052-79.654 54.434-119.321 13.613-29.382 27.987-58.422 41.809-87.704 5.177-10.945 9.607-22.234 14.629-33.249 5.191-11.37 13.76-15.329 23.83-11.386 13.503 5.299 19.257 15.158 15.623 26.73-11.334 36.093-23.996 71.829-33.652 108.362-12.842 48.603-23.911 97.706-34.675 146.829-9.381 42.834-17.281 85.998-25.854 129.014-4.645 23.275-21.371 35.115-44.845 29.141 15.562-72.298 31.151-144.737 46.749-217.171-0.447-0.212-0.895-0.424-1.339-0.635-41.003 81.076-82.003 162.148-123.373 243.952 2.199 0.331 5.883 1.008 9.593 1.387 3.916 0.402 8.225-0.439 11.741 0.895 35.732 13.56 68.216-0.94 101.372-10.945 19.759-5.966 39.621-12.101 59.873-15.774 17.39-3.157 35.339-2.378 51.225 7.733 17.315 11.020 19.453 26.745 11.982 45.507-4.759 11.982-3.84 26.651-3.607 40.085 0.201 11.393 3.074 22.734 4.77 34.101 1.52 0.312 3.044 0.631 4.558 0.957 5.54-7.115 11.703-13.835 16.479-21.428 7.582-12.055 15.072-24.304 20.909-37.228 2.77-6.13 1.263-14.066 2.383-21.079 0.846-5.236 2.569-10.367 4.285-15.418 2.343-6.905 5.299-13.595 7.553-20.52 4.948-15.203 7.64-16.605 22.575-9.853 2.054-24.549 4.327-48.65 6.043-72.793 3.222-45.25 6.312-90.515 8.987-135.801 0.467-7.917-1.745-15.962-1.979-23.968-0.115-3.947 0.167-9.698 2.591-11.502 3.812-2.836 10.242-5.215 14.43-3.973 19.804 5.862 22.472 9.101 22.443 30.534-0.019 19.867-1.396 39.769-3.13 59.577-4.074 46.597-8.777 93.137-13.069 139.708-0.945 10.301-1.254 20.662-1.85 31.023 17.449 4.418 28.853-4.387 30.259-21.364 4.207-50.44 9.209-100.817 13.903-151.217 3.083-33.082 6.033-66.169 9.336-99.232 1.168-11.714 2.655-23.446 4.994-34.967 2.267-11.194 12.116-19.303 19.491-17.403 13.778 3.555 20.176 13.808 18.443 26.507-5.308 39.145-10.383 78.334-14.771 117.583-4.487 40.094-8.201 80.276-11.948 120.45-1.391 14.876-1.922 29.838-2.97 46.936 8.581-1.037 16.108-1.861 23.625-2.873 33.443-4.461 66.869-9.054 100.326-13.395 7.863-1.016 15.903-2.16 23.738-1.599 13.191 0.94 19.031 9.333 19.018 22.244-0.003 4.352 2.954 10.272 6.482 12.772 17.345 12.291 30.803 27.354 34.080 48.761 2.142 13.996-0.825 28.273-10.503 39.152-22.726 25.574-51.411 42.817-85.797 41.077-39.158-1.979-75.442-18.391-85.115-65.358-2.621-12.758 2.163-23.080 11.763-31.535 6.343-5.582 12.483-11.403 18.713-17.125-0.365-1.016-0.735-2.019-1.103-3.032-17.878 3.301-35.804 6.365-53.55 10.233-2.042 0.447-4.258 5.359-4.418 8.308-1.815 34.57-3.759 69.149-4.645 103.75-1.043 40.444-2.246 80.936-1.202 121.351 1.061 40.946 4.801 81.817 7.315 122.728 0.308 4.963 0.602 9.982 0.254 14.931-0.674 9.43-9.434 12.283-18.43 11.109-16.743-2.188-16.507-15.173-17.38-25.565-3.575-42.466-6.628-85.029-8.108-127.612-0.916-26.527 1.824-53.169 2.054-79.759 0.393-45.977 0.109-91.96 0.109-140.25-9.049 2.876-18.418 5.54-27.477 9.009-1.889 0.727-3.484 4.319-3.792 6.777-7.757 62.712-15.603 125.417-22.803 188.19-2.922 25.484-5.491 51.097-6.187 76.701-0.776 28.615 0.226 57.316 1.669 85.922 0.393 7.806 5.651 15.265 7.727 23.127 1.069 4.049 1.181 11.948-0.201 12.423-5.92 2.001-12.543 1.954-18.928 2.478-0.887 0.068-1.861-0.882-4.065-2.009-3.973 10.064-8.236 19.765-11.646 29.742-10.342 30.256-31.701 50.873-58.042 67.19-49.094 30.429-101.91 37.294-157.752 24.647-11.449-2.591-22.975-4.906-34.31-7.955-46.317-12.447-81.331-41.502-108.825-79.069-15.58-21.284-27.016-45.33-35.727-71.080-7.337-21.67-14.055-43.146-17.681-65.612-4.855-30.020-0.598-59.833 3.14-89.567 1.943-15.523 4.415-31.071 8.086-46.259 6.59-27.284 19.077-52.019 35.944-74.41 10.216-13.555 19.867-27.862 31.922-39.621 13.924-13.584 30.21-24.752 45.473-36.965 1.584-1.272 3.21-2.5 4.814-3.747-0.302-1.202-0.631-2.419-0.969-3.637zM105.833 752.967c3.911 24.504 6.678 49.254 11.99 73.449 8.568 38.958 26.271 73.838 52.032 104.417 35.742 42.43 83.259 59.536 136.941 63.212 49.312 3.377 93.914-7.559 129.139-44.445 26.867-28.125 41.185-62.033 42.176-101.13 0.48-18.923 0.342-37.854 0.369-56.784 0.010-12.447 2.543-25.687-0.795-37.187-6.818-23.475-15.134-46.871-25.935-68.763-15.537-31.488-38.344-58.245-60.833-85.189-32.576-39.021-71.838-68.152-119.303-85.969-5.243-1.972-13.009-1.527-18.058 0.952-43.505 21.377-80.38 50.409-106.779 92.061-28.17 44.451-37.725 93.402-40.95 145.364zM727.521 556.104c23.344-1.374 39.819-14.021 53.894-31.081 7.153-8.672 8.012-20.305-0.46-27.733-9.322-8.179-19.994-14.886-30.526-21.527-2.215-1.396-7.289-0.929-9.485 0.744-17.784 13.543-35.568 27.152-52.576 41.657-8.445 7.198-7.489 15.298 0.25 23.173 10.783 10.974 24.666 13.376 38.902 14.767zM392.33 554.639c1.254-22.214 2.343-47.78 4.366-73.274 0.575-7.285-1.784-9.485-8.043-8.184-22.234 4.634-44.445 9.443-66.581 14.502-4.959 1.138-9.618 3.566-13.474 5.041 29.127 21.543 57.761 42.718 83.727 61.915zM502.042 552.019c-36.040 55.683-43.056 52.825-64.916 53.835 15.607 24.951 31.273 49.973 47.889 76.537 5.667-43.395 11.188-85.652 17.024-130.372z"></path>
	<path class="path2" d="M1213.477 521.737c0.127 2.199 0.198 2.886 0.198 3.566-0.032 5.554 2.136 14.078-0.546 16.063-6.891 5.105-15.822 7.629-24.153 10.577-7.011 2.478-14.33 4.079-22.913 6.458 4.828 14.066 9.67 27.303 13.897 40.739 5.976 18.988 9.71 37.975-2.569 56.295-8.641 12.897-20.276 15.992-35.283 11.944-29.917-8.063-52.040-28.601-76.68-45.292-14.073-9.522-29.084-17.66-43.708-26.356-11.891-7.072-19.816-17.048-18.186-31.248 1.584-13.778 10.749-22.726 23.173-28.488 23.534-10.914 48.77-11.968 74.015-13.069 2.825-0.122 5.655-0.010 9.954-0.010-30.725-66.847-51.162-135.961-68.939-207.015-3.622 11.925-7.419 23.792-10.807 35.774-7.048 24.942-12.823 50.29-21.037 74.827-11.656 34.828-23.999 69.509-38.032 103.441-10.71 25.923-28.881 47.453-57.679 52.651-33.73 6.089-61.961-11.255-75.225-41.997-19.617-45.478-15.869-90.592 11.962-132.188 9.988-14.926 24.404-23.905 44.055-18.764 11.487 3.006 22.757 16.781 20.176 25.678-1.693 5.828-4.264 10.069-12.009 8.918-8.573-1.272-15.603 3.074-19.683 10.394-11.611 20.87-19.728 42.759-16.649 67.338 1.055 8.418 0.992 17.083 3.049 25.229 6.932 27.575 32.857 23.55 47.382 12.891 18.661-13.684 27.801-33.977 36.081-54.567 11.016-27.39 22.439-54.676 31.931-82.603 8.538-25.094 14.972-50.917 21.882-76.546 9.209-34.185 18.966-68.274 26.545-102.825 3.614-16.444 2.062-33.964 4.309-50.807 0.81-6.086 4.48-13.933 9.317-16.796 6.307-3.714 13.782-1.093 20.121 5.064 11.998 11.641 12.168 16.504 9.246 32.77-3.126 17.38-2.483 35.482-3.001 53.285-0.992 33.952 6.563 66.679 15.442 99.075 9.618 35.090 18.917 70.326 30.388 104.818 7.608 22.867 18.611 44.626 28.66 66.619 1.172 2.553 6.103 5.053 9.062 4.807 13.37-1.103 26.607-3.775 39.984-4.672 5.224-0.335 10.634 2.519 16.27 4.008zM1045.394 573.431c7.436 6.164 14.409 12.182 21.643 17.878 18.533 14.591 36.988 29.293 55.901 43.39 6.536 4.865 15.632 10.451 22.424 4.096 4.166-3.897 5.582-14.319 3.714-20.424-5.569-18.241-13.163-35.885-20.529-53.525-1.016-2.438-5.199-4.881-8.015-4.994-12.080-0.51-24.395-1.455-36.273 0.239-13.191 1.881-28.245 0.035-38.865 13.342z"></path>
	<path class="path3" d="M1289.441 838.789c-16.057 3.312-25.484-1.99-29.947-17.125-3.083-10.446 0.271-18.754 11.236-18.592 7.072 0.109 16.418 2.725 20.433 7.691 3.759 4.649 2.246 13.897 2.199 21.116-0.010 2.408-2.65 4.791-3.92 6.909z"></path>
</symbol>

<symbol id="icon-close" viewBox="0 0 1024 1024">
	<title>close</title>
	<path class="path1" d="M734.618 760.269c-24.013 24.013-62.925 24.013-86.886 0l-135.731-155.136-135.731 155.085c-24.013 24.013-62.925 24.013-86.886 0-24.013-24.013-24.013-62.925 0-86.886l141.21-161.28-141.261-161.382c-24.013-24.013-24.013-62.874 0-86.886s62.874-24.013 86.886 0l135.782 155.187 135.731-155.187c24.013-24.013 62.874-24.013 86.886 0s24.013 62.925 0 86.886l-141.21 161.382 141.21 161.28c24.013 24.013 24.013 62.925 0 86.938z"></path>
</symbol>

</defs>
</svg>
